<svg version="1.1" xmlns="http://www.w3.org/2000/svg" viewBox="0 0 1118.2485330185611 445.66932648420334" width="1118.2485330185611" height="445.66932648420334">
  <!-- svg-source:excalidraw -->
  
  <defs>
    <style>
      @font-face {
        font-family: "Virgil";
        src: url("https://excalidraw.com/Virgil.woff2");
      }
      @font-face {
        font-family: "Cascadia";
        src: url("https://excalidraw.com/Cascadia.woff2");
      }
    </style>
  </defs>
  <rect x="0" y="0" width="1118.2485330185611" height="445.66932648420334" fill="#ffffff"></rect><g stroke-linecap="round" transform="translate(912.2485330185611 76.7678108215332) rotate(0 98 112.5)"><path d="M0 0 C0 0, 0 0, 0 0 M0 0 C0 0, 0 0, 0 0 M0.4 6.44 C1.24 4.79, 2.7 3.78, 4.27 -0.34 M-0.06 6.17 C1.51 4.16, 3.37 1.61, 4.66 0.74 M0.93 11.49 C3.09 8.12, 6.6 2.39, 9.83 -1.15 M-0.19 11.37 C2.45 9.78, 5.84 5.92, 10.3 -0.69 M0.03 18.1 C5.76 10.63, 9.61 6.92, 13.65 -1.65 M0.44 18.65 C3.91 14.48, 7.91 8.84, 14.63 0.45 M2.08 24.13 C9.11 14.61, 15.27 5.83, 23.07 -1.28 M0.73 24.05 C6.78 16.26, 13.04 9.44, 21.68 -0.44 M-0.7 32.34 C11.61 19.63, 21.77 6.37, 26.25 1.5 M-0.17 30.19 C6.64 21.1, 14.34 14.44, 26.33 -0.12 M0.93 37.42 C7.55 28.49, 15.82 19.44, 33.89 -0.93 M0.23 37.66 C8 27.82, 15.73 19.45, 31.18 0.19 M-0.13 43.62 C12.47 27.4, 25.82 12.08, 38.27 -0.15 M-0.57 43.42 C8.68 32.02, 18.18 22.73, 36.98 0.86 M-0.72 50.48 C9.48 39.35, 18.07 26.45, 42.99 1.8 M-0.26 49.28 C11.08 34.16, 23.6 21.16, 41.61 0.12 M1.64 55.09 C15.09 39.92, 27.47 21.04, 46.25 1.93 M0.61 54.91 C16.11 36.76, 29.16 21.64, 46.63 0.3 M0.01 61.6 C17.28 39.58, 34.44 18.74, 54.54 1.79 M-0.83 60.07 C21.51 37.77, 42.56 13.5, 52.23 0.06 M-0.88 67.42 C17.06 48.72, 35.58 26.89, 57.97 1.01 M0.5 67.62 C13.3 53.28, 25.36 38.21, 57.75 0.7 M1.91 73.05 C24.25 46.99, 48.16 19.53, 63.95 -1.29 M-0.52 72.03 C16.75 54.74, 35.16 34.95, 64.68 0.34 M0.04 79.75 C21.22 56.33, 39.98 35.72, 68.47 -0.88 M0.54 79.87 C18.94 58.65, 35.93 37.8, 69.16 0.21 M-1 83.85 C29.13 53.14, 57.16 23.14, 73.87 0.96 M0 84.81 C29.85 51.33, 58.08 18.93, 74.97 -1.1 M1.39 90.23 C16.29 71.47, 36.58 51.62, 80.04 -0.97 M0.58 91.87 C24.96 62.82, 47.63 35.58, 80.06 0.6 M-0.07 98.55 C17.75 75.99, 34.5 56.06, 86.21 1.68 M-0.24 98.43 C34.76 59.76, 68.28 21, 85.5 -0.66 M0.09 105.02 C24.9 73.55, 50.58 43.1, 90.2 0.29 M-0.48 102.71 C32.01 65.74, 64.33 28.98, 90.02 -0.74 M-1.47 108.16 C37.69 68.87, 74.13 28.72, 94.14 -1.22 M0.16 110.28 C27.74 78.76, 55.56 48.01, 95.02 -1.15 M0.29 115.02 C32.67 79.01, 61.94 40.08, 99.75 -0.84 M0.62 115.08 C22.01 90.25, 42.24 64.8, 101.01 -0.8 M1.94 122.71 C28.66 92.48, 52.89 59.35, 106.07 -1.08 M0.99 121.63 C25.41 95.39, 48.23 66.19, 106.67 0.26 M0.76 128.63 C44.65 77.12, 89.66 26.88, 112.71 0.66 M-1.14 128.07 C23.67 101.3, 47.71 72.48, 111.34 -0.92 M1.2 132.22 C24.06 105.22, 50.85 76.29, 116.99 2.25 M1.09 134.63 C38.81 87.88, 79.07 40.58, 115.32 0.8 M1.46 140.75 C25.5 111.31, 50.36 82.17, 120.39 -1.41 M-0.43 140.13 C32.51 102.11, 64.94 64.62, 121.71 -0.84 M-1.43 147.49 C38.54 102.09, 75.92 62.37, 127.14 -0.59 M-0.36 145.03 C42.36 95.66, 84.57 48.58, 126.16 1.02 M-0.31 153.19 C44.37 101.54, 88.45 54.59, 133.22 -0.49 M0.44 151.68 C31.21 115.84, 62.85 77.65, 133.14 -0.61 M-0.95 160.55 C48.14 101.39, 95.95 48.04, 137.95 0.09 M-0.41 158.96 C32.84 119.29, 65.97 80.89, 136.89 -0.51 M0.44 164.18 C44.04 115.05, 91.02 61.8, 141.49 -1.27 M0.34 163.77 C53.02 104.55, 106.87 43.14, 143.27 -0.8 M0.36 170.86 C42.73 122.77, 84.1 74.82, 147.18 1.62 M0.11 170.12 C39.32 122.85, 80.7 75.72, 147.92 1.09 M0.36 176.04 C58.71 106.21, 117.93 37.15, 153.32 -0.11 M0.34 177.06 C38.13 133.78, 76.15 88.36, 153.76 -0.34 M-1.32 183.42 C35.5 139.75, 74.33 97.4, 158.82 -0.63 M-0.8 183.38 C38.2 141.54, 73.8 99.81, 158.48 -0.38 M-1.4 188.98 C35.7 147.5, 72.79 106.25, 165.36 0.18 M-0.63 189.32 C38.93 143.13, 77.25 98.81, 164.75 -0.3 M0.15 196.23 C64.64 120.7, 130.91 45.05, 169.35 -0.59 M0.78 195.54 C37.71 152.78, 75.49 108.03, 169.72 0.67 M-1.15 201.57 C53.01 140.68, 107.49 80.12, 174.06 0.89 M0.28 200.83 C45.06 148.21, 88.66 96.98, 175.06 -0.34 M0.2 208.11 C61.77 137.7, 124.65 68.36, 181.34 1.48 M0.79 206.62 C68.33 129.92, 134.14 53.6, 179.83 -0.52 M-1.06 212.16 C66.72 135.67, 135.65 56.04, 184.92 0.66 M-0.56 213.65 C72.84 129.75, 145.9 45.95, 185.5 -0.44 M-0.32 219.39 C69.67 139, 136.45 63.22, 190.44 -0.16 M-0.2 220.13 C65.21 144.82, 128.78 70.98, 190.54 0.66 M-0.08 225.12 C74.67 141.37, 147.86 55.88, 196.28 -1.13 M0.44 225.7 C54.58 162.91, 108.78 100.94, 197.02 -0.84 M6.55 224.79 C66.07 154.87, 127.77 81.59, 195.79 4.77 M6.42 225.54 C71.65 149.26, 136.24 75.36, 195.44 6.72 M9.74 224.06 C72.14 153.19, 137.22 79.61, 194.95 11.09 M11.52 225.66 C73.22 153.79, 134.03 83.12, 195.26 12.18 M16.06 224.11 C81.34 149.09, 146.57 76.5, 194.99 17.83 M15.78 225.73 C83.04 146.72, 150.2 69.92, 196.71 18.52 M20.9 226.59 C73.5 161.99, 128.53 100.73, 196.21 24.22 M21.68 226.04 C77.76 159.62, 133.47 94.65, 196.63 24.25 M26.24 223.77 C70.21 176.79, 110.87 128.81, 196.54 29.13 M26.78 224.68 C93.87 146.43, 160.52 70.14, 195.99 30.54 M32.86 226.47 C90.25 156.93, 151.78 89.37, 196.16 36.98 M32.28 225.44 C94.14 153.09, 157.98 80.62, 196.19 36.53 M36.17 225.72 C96.11 160.25, 155.01 90.27, 196.22 42.26 M37.05 225.6 C85.9 167.99, 135.38 111.98, 195.42 43.82 M44.35 223.97 C78.11 186.56, 112.9 145.69, 197.23 47.65 M43.48 225.28 C75.48 186.58, 106.5 150.94, 196.14 49.16 M46.91 226.66 C99.77 162.77, 155.19 99.81, 197.49 56.17 M47.01 225.72 C107.66 158.43, 166.15 90.39, 196.41 55.15 M53.28 223.57 C89.33 186.66, 127.19 145.52, 198.04 61.92 M54.04 225.14 C90.07 181.26, 126.44 139.08, 195.82 60.22 M57.52 224.72 C103.53 174.31, 146.17 120.96, 194.4 65.71 M57.73 226.25 C97.51 177.9, 138.36 130.94, 195.21 66.57 M63.82 223.81 C93.44 190.38, 123.9 155.26, 195.68 73.3 M64.7 225.99 C110.96 171.94, 157.87 120.18, 195.97 73.36 M67.63 224.48 C114.74 173.31, 157.2 123.41, 194.75 79.52 M68.61 225.2 C96.34 193.16, 124.49 161.6, 195.91 79.19 M76.41 223.63 C100.08 197.95, 124.21 167.6, 195.64 83.74 M74.81 224.86 C108.22 186.24, 141.37 149.37, 196.13 86.37 M81.22 223.73 C127.09 170.52, 173.95 118.84, 195.89 92.97 M80.22 224.84 C115.19 183.93, 151.9 143.79, 196.08 92.07 M86.48 226.91 C110.84 193.84, 136.8 165.13, 197.6 99.29 M85.84 225.78 C125.48 177.69, 165.43 132.99, 195.84 96.59 M89.2 224.38 C117.92 194.47, 145.07 161.41, 196.59 102.06 M89.31 225.41 C122.49 186.64, 155.68 149.56, 196.46 104.34 M96.7 225.88 C119 198.37, 142.63 172.13, 196.83 109.69 M95.9 224.81 C129.09 186.85, 161.29 147.14, 195.81 110.3 M101.88 225.22 C133.2 188.89, 166.54 147.79, 197.07 117.42 M101.07 224.67 C131.36 192.81, 160.4 160.15, 196.26 116.58 M104.97 225.72 C136.93 188.45, 171 152.46, 195.86 121.48 M107.39 225.52 C128.44 198.85, 152.04 172.78, 197.12 121.38 M112.78 225.77 C142.06 191.93, 170.19 156.85, 194.84 128.7 M111.09 226.01 C141.18 192.3, 169.38 157.86, 197.07 127.25 M116.45 224.3 C148 191.82, 175.08 161.26, 195.82 134.68 M117.06 225.12 C146.28 193.63, 173.79 160.49, 196.56 134.1 M122.69 226.31 C145.98 197.74, 171.03 169.6, 195.31 141.56 M121.32 224.45 C141.92 203.51, 158.89 182.05, 195.54 139.68 M127.55 224.3 C146.11 201.36, 168.82 180.54, 195.05 147.81 M128.05 224.43 C144.64 206.44, 161.06 187.02, 195.28 146.1 M131.64 223.86 C149.28 203.26, 168.33 182.63, 195.13 150.4 M132.08 224.63 C157.1 194.97, 182.37 166.1, 196.69 152.82 M137.93 225.1 C162.77 199.88, 183.89 172.39, 197.2 158.4 M137.87 225.92 C154.08 208.45, 169.41 189.39, 196.82 158.9 M142.92 224.2 C160.83 205.19, 176.86 187.08, 197.58 163.14 M144.07 224.82 C159.63 207.34, 176.12 187.1, 195.24 164.01 M150.5 226.87 C164.02 205.39, 181.32 184.8, 197.79 171.99 M148.42 225.67 C165.75 206.14, 181.48 188.79, 195.76 170.9 M155.07 225.87 C166.82 210.47, 178.51 193.87, 195.1 178.15 M154.37 224.92 C166.69 209.91, 181.18 194.43, 196.26 177.94 M159.42 226.5 C173.01 210.45, 184.14 195.1, 195.6 182.85 M159.96 225.37 C173.13 210.5, 186.22 194.71, 197.04 182.1 M165.87 224.13 C174.81 214.6, 183.34 205.46, 197.47 188.86 M164.43 224.44 C171.41 214.97, 179.22 205.88, 195.25 189.2 M169.44 226.4 C174.84 216.61, 183.48 208.94, 196.03 194.76 M170.47 225.12 C180.04 214.68, 190.05 204.17, 195.33 194.91 M176.35 227.02 C183.72 217.89, 187.57 210.48, 194.33 200.66 M176.08 224.52 C183.13 216.06, 189.71 208.9, 196.72 201.24 M178.54 227.47 C187.16 218.31, 192.03 211.09, 197.65 205.98 M180.28 226.35 C185.56 219.21, 192.21 212.53, 195.66 207.08 M186.61 223.68 C189.57 220.18, 191.53 215.49, 194.96 211.98 M185.58 225.77 C188.48 223.06, 191.13 219.98, 195.72 213.13 M190.5 225.56 C192.72 223.87, 195.08 221.72, 196.21 218.82 M190.56 225.88 C192.66 223.32, 194.73 221.75, 195.84 219.8" stroke="#ced4da" stroke-width="0.5" fill="none"></path><path d="M-0.19 -0.95 C71.91 -1.06, 145.13 0.56, 194.44 1.11 M-0.52 -0.57 C73.27 1.09, 145.08 0.69, 196.07 0.73 M196.15 -0.79 C195.42 50.02, 195.6 96.13, 196.06 226.41 M195.78 0.3 C194.78 77.69, 195.23 156.27, 196.23 225.46 M194.16 226.71 C138.63 226.87, 81.79 226.91, -1.91 223.05 M196.36 225.59 C121.93 224.01, 48.26 224.15, 0.37 225.75 M-1.38 226.33 C2.26 150.32, 1.51 75.36, -1.31 -0.95 M0.84 225.04 C0.92 145.49, 1.42 64.37, -0.65 0.37" stroke="#495057" stroke-width="1" fill="none"></path></g><g stroke-linecap="round" transform="translate(15.545308854368159 87.81953583326975) rotate(0 29.070519330231747 19.38034622015452)"><path d="M9.69 0 L48.45 0 L52.69 0.61 L55.72 2.42 L57.54 5.45 L58.14 9.69 L58.14 29.07 L57.54 33.31 L55.72 36.34 L52.69 38.16 L48.45 38.76 L9.69 38.76 L5.45 38.16 L2.42 36.34 L0.61 33.31 L0 29.07 L0.61 5.45 L2.42 2.42 L5.45 0.61 L9.69 0" stroke="none" stroke-width="0" fill="#ced4da"></path><path d="M9.69 0 M9.69 0 C24.71 0, 39.74 0, 48.45 0 M9.69 0 C23.66 0, 37.63 0, 48.45 0 M48.45 0 C54.91 0, 58.14 3.23, 58.14 9.69 M48.45 0 C54.91 0, 58.14 3.23, 58.14 9.69 M58.14 9.69 C58.14 15.91, 58.14 22.13, 58.14 29.07 M58.14 9.69 C58.14 16.23, 58.14 22.76, 58.14 29.07 M58.14 29.07 C58.14 35.53, 54.91 38.76, 48.45 38.76 M58.14 29.07 C58.14 35.53, 54.91 38.76, 48.45 38.76 M48.45 38.76 C35.5 38.76, 22.55 38.76, 9.69 38.76 M48.45 38.76 C36.38 38.76, 24.31 38.76, 9.69 38.76 M9.69 38.76 C3.23 38.76, 0 35.53, 0 29.07 M9.69 38.76 C3.23 38.76, 0 35.53, 0 29.07 M0 29.07 C0 21.76, 0 14.45, 0 9.69 M0 29.07 C0 24.14, 0 19.21, 0 9.69 M0 9.69 C0 3.23, 3.23 0, 9.69 0 M0 9.69 C0 3.23, 3.23 0, 9.69 0" stroke="#343a40" stroke-width="2" fill="none"></path></g><g stroke-linecap="round" transform="translate(10 130.89450115009384) rotate(0 34.158424908424905 4.675677934232979)"><path d="M2.34 0 L65.98 0 L67.73 0.58 L68.32 2.34 L68.32 7.01 L67.73 8.77 L65.98 9.35 L2.34 9.35 L0.58 8.77 L0 7.01 L0.58 0.58 L2.34 0" stroke="none" stroke-width="0" fill="#ced4da"></path><path d="M2.34 0 M2.34 0 C25.84 0, 49.34 0, 65.98 0 M2.34 0 C15.67 0, 29 0, 65.98 0 M65.98 0 C67.54 0, 68.32 0.78, 68.32 2.34 M65.98 0 C67.54 0, 68.32 0.78, 68.32 2.34 M68.32 2.34 C68.32 4.02, 68.32 5.71, 68.32 7.01 M68.32 2.34 C68.32 3.35, 68.32 4.36, 68.32 7.01 M68.32 7.01 C68.32 8.57, 67.54 9.35, 65.98 9.35 M68.32 7.01 C68.32 8.57, 67.54 9.35, 65.98 9.35 M65.98 9.35 C44.51 9.35, 23.05 9.35, 2.34 9.35 M65.98 9.35 C47.26 9.35, 28.54 9.35, 2.34 9.35 M2.34 9.35 C0.78 9.35, 0 8.57, 0 7.01 M2.34 9.35 C0.78 9.35, 0 8.57, 0 7.01 M0 7.01 C0 5.56, 0 4.1, 0 2.34 M0 7.01 C0 6, 0 4.99, 0 2.34 M0 2.34 C0 0.78, 0.78 0, 2.34 0 M0 2.34 C0 0.78, 0.78 0, 2.34 0" stroke="#343a40" stroke-width="2" fill="none"></path></g><g stroke-linecap="round" transform="translate(60.3678076060927 134.31894132727888) rotate(0 6.120820957724533 1.179895253357003)"><path d="M0.59 0 L11.65 0 L12.24 1.77 L11.65 2.36 L0.59 2.36 L0 1.77 L0.59 0" stroke="none" stroke-width="0" fill="#343a40"></path><path d="M0.59 0 M0.59 0 C3.43 0, 6.27 0, 11.65 0 M0.59 0 C3.22 0, 5.85 0, 11.65 0 M11.65 0 C12.04 0, 12.24 0.2, 12.24 0.59 M11.65 0 C12.04 0, 12.24 0.2, 12.24 0.59 M12.24 0.59 C12.24 0.84, 12.24 1.1, 12.24 1.77 M12.24 0.59 C12.24 0.85, 12.24 1.12, 12.24 1.77 M12.24 1.77 C12.24 2.16, 12.04 2.36, 11.65 2.36 M12.24 1.77 C12.24 2.16, 12.04 2.36, 11.65 2.36 M11.65 2.36 C8.99 2.36, 6.33 2.36, 0.59 2.36 M11.65 2.36 C8.42 2.36, 5.18 2.36, 0.59 2.36 M0.59 2.36 C0.2 2.36, 0 2.16, 0 1.77 M0.59 2.36 C0.2 2.36, 0 2.16, 0 1.77 M0 1.77 C0 1.36, 0 0.95, 0 0.59 M0 1.77 C0 1.42, 0 1.06, 0 0.59 M0 0.59 C0 0.2, 0.2 0, 0.59 0 M0 0.59 C0 0.2, 0.2 0, 0.59 0" stroke="#343a40" stroke-width="2" fill="none"></path></g><g stroke-linecap="round" transform="translate(38.67968648392264 127.18469095814322) rotate(0 6.120820957724533 1.179895253357003)"><path d="M0.59 0 L11.65 0 L12.24 1.77 L11.65 2.36 L0.59 2.36 L0 1.77 L0.59 0" stroke="none" stroke-width="0" fill="#343a40"></path><path d="M0.59 0 M0.59 0 C4.93 0, 9.28 0, 11.65 0 M0.59 0 C3.33 0, 6.07 0, 11.65 0 M11.65 0 C12.04 0, 12.24 0.2, 12.24 0.59 M11.65 0 C12.04 0, 12.24 0.2, 12.24 0.59 M12.24 0.59 C12.24 0.84, 12.24 1.09, 12.24 1.77 M12.24 0.59 C12.24 1, 12.24 1.41, 12.24 1.77 M12.24 1.77 C12.24 2.16, 12.04 2.36, 11.65 2.36 M12.24 1.77 C12.24 2.16, 12.04 2.36, 11.65 2.36 M11.65 2.36 C8.86 2.36, 6.06 2.36, 0.59 2.36 M11.65 2.36 C8.94 2.36, 6.24 2.36, 0.59 2.36 M0.59 2.36 C0.2 2.36, 0 2.16, 0 1.77 M0.59 2.36 C0.2 2.36, 0 2.16, 0 1.77 M0 1.77 C0 1.47, 0 1.16, 0 0.59 M0 1.77 C0 1.37, 0 0.97, 0 0.59 M0 0.59 C0 0.2, 0.2 0, 0.59 0 M0 0.59 C0 0.2, 0.2 0, 0.59 0" stroke="#343a40" stroke-width="2" fill="none"></path></g><g stroke-linecap="round" transform="translate(20.53847650305329 92.30376190372539) rotate(0 24.11446288866233 15.125362843360548)"><path d="M7.56 0 L40.67 0 L43.97 0.47 L46.34 1.89 L47.76 4.25 L48.23 7.56 L48.23 22.69 L47.76 26 L46.34 28.36 L43.97 29.78 L40.67 30.25 L7.56 30.25 L4.25 29.78 L1.89 28.36 L0.47 26 L0 22.69 L0.47 4.25 L1.89 1.89 L4.25 0.47 L7.56 0" stroke="none" stroke-width="0" fill="#343a40"></path><path d="M7.56 0 M7.56 0 C20.34 0, 33.12 0, 40.67 0 M7.56 0 C15.84 0, 24.11 0, 40.67 0 M40.67 0 C45.71 0, 48.23 2.52, 48.23 7.56 M40.67 0 C45.71 0, 48.23 2.52, 48.23 7.56 M48.23 7.56 C48.23 11.42, 48.23 15.29, 48.23 22.69 M48.23 7.56 C48.23 12.84, 48.23 18.12, 48.23 22.69 M48.23 22.69 C48.23 27.73, 45.71 30.25, 40.67 30.25 M48.23 22.69 C48.23 27.73, 45.71 30.25, 40.67 30.25 M40.67 30.25 C29.58 30.25, 18.49 30.25, 7.56 30.25 M40.67 30.25 C33.69 30.25, 26.71 30.25, 7.56 30.25 M7.56 30.25 C2.52 30.25, 0 27.73, 0 22.69 M7.56 30.25 C2.52 30.25, 0 27.73, 0 22.69 M0 22.69 C0 19.44, 0 16.2, 0 7.56 M0 22.69 C0 17.5, 0 12.32, 0 7.56 M0 7.56 C0 2.52, 2.52 0, 7.56 0 M0 7.56 C0 2.52, 2.52 0, 7.56 0" stroke="#343a40" stroke-width="2" fill="none"></path></g><g transform="translate(15.868818681318714 26.532696425914764) rotate(0 31.5 12.5)"><text x="0" y="18" font-family="Virgil, Segoe UI Emoji" font-size="20px" fill="#000000" text-anchor="start" style="white-space: pre;" direction="ltr">clients</text></g><g stroke-linecap="round" transform="translate(15.545308854368159 185.98620249993644) rotate(0 29.070519330231747 19.380346220154536)"><path d="M9.69 0 L48.45 0 L52.69 0.61 L55.72 2.42 L57.54 5.45 L58.14 9.69 L58.14 29.07 L57.54 33.31 L55.72 36.34 L52.69 38.16 L48.45 38.76 L9.69 38.76 L5.45 38.16 L2.42 36.34 L0.61 33.31 L0 29.07 L0.61 5.45 L2.42 2.42 L5.45 0.61 L9.69 0" stroke="none" stroke-width="0" fill="#ced4da"></path><path d="M9.69 0 M9.69 0 C18.98 0, 28.27 0, 48.45 0 M9.69 0 C19.23 0, 28.77 0, 48.45 0 M48.45 0 C54.91 0, 58.14 3.23, 58.14 9.69 M48.45 0 C54.91 0, 58.14 3.23, 58.14 9.69 M58.14 9.69 C58.14 14.2, 58.14 18.72, 58.14 29.07 M58.14 9.69 C58.14 15.98, 58.14 22.28, 58.14 29.07 M58.14 29.07 C58.14 35.53, 54.91 38.76, 48.45 38.76 M58.14 29.07 C58.14 35.53, 54.91 38.76, 48.45 38.76 M48.45 38.76 C36.73 38.76, 25 38.76, 9.69 38.76 M48.45 38.76 C38.67 38.76, 28.88 38.76, 9.69 38.76 M9.69 38.76 C3.23 38.76, 0 35.53, 0 29.07 M9.69 38.76 C3.23 38.76, 0 35.53, 0 29.07 M0 29.07 C0 21.78, 0 14.48, 0 9.69 M0 29.07 C0 24.76, 0 20.44, 0 9.69 M0 9.69 C0 3.23, 3.23 0, 9.69 0 M0 9.69 C0 3.23, 3.23 0, 9.69 0" stroke="#343a40" stroke-width="2" fill="none"></path></g><g stroke-linecap="round" transform="translate(10 229.06116781676053) rotate(0 34.158424908424905 4.6756779342329935)"><path d="M2.34 0 L65.98 0 L67.73 0.58 L68.32 2.34 L68.32 7.01 L67.73 8.77 L65.98 9.35 L2.34 9.35 L0.58 8.77 L0 7.01 L0.58 0.58 L2.34 0" stroke="none" stroke-width="0" fill="#ced4da"></path><path d="M2.34 0 M2.34 0 C21.44 0, 40.55 0, 65.98 0 M2.34 0 C23.2 0, 44.07 0, 65.98 0 M65.98 0 C67.54 0, 68.32 0.78, 68.32 2.34 M65.98 0 C67.54 0, 68.32 0.78, 68.32 2.34 M68.32 2.34 C68.32 3.49, 68.32 4.64, 68.32 7.01 M68.32 2.34 C68.32 4.21, 68.32 6.07, 68.32 7.01 M68.32 7.01 C68.32 8.57, 67.54 9.35, 65.98 9.35 M68.32 7.01 C68.32 8.57, 67.54 9.35, 65.98 9.35 M65.98 9.35 C45.31 9.35, 24.64 9.35, 2.34 9.35 M65.98 9.35 C50.8 9.35, 35.61 9.35, 2.34 9.35 M2.34 9.35 C0.78 9.35, 0 8.57, 0 7.01 M2.34 9.35 C0.78 9.35, 0 8.57, 0 7.01 M0 7.01 C0 5.83, 0 4.65, 0 2.34 M0 7.01 C0 6.07, 0 5.13, 0 2.34 M0 2.34 C0 0.78, 0.78 0, 2.34 0 M0 2.34 C0 0.78, 0.78 0, 2.34 0" stroke="#343a40" stroke-width="2" fill="none"></path></g><g stroke-linecap="round" transform="translate(60.36780760609258 232.48560799394556) rotate(0 6.120820957724533 1.1798952533570173)"><path d="M0.59 0 L11.65 0 L12.24 1.77 L11.65 2.36 L0.59 2.36 L0 1.77 L0.59 0" stroke="none" stroke-width="0" fill="#343a40"></path><path d="M0.59 0 M0.59 0 C3.93 0, 7.28 0, 11.65 0 M0.59 0 C3.23 0, 5.87 0, 11.65 0 M11.65 0 C12.04 0, 12.24 0.2, 12.24 0.59 M11.65 0 C12.04 0, 12.24 0.2, 12.24 0.59 M12.24 0.59 C12.24 0.88, 12.24 1.17, 12.24 1.77 M12.24 0.59 C12.24 0.91, 12.24 1.23, 12.24 1.77 M12.24 1.77 C12.24 2.16, 12.04 2.36, 11.65 2.36 M12.24 1.77 C12.24 2.16, 12.04 2.36, 11.65 2.36 M11.65 2.36 C8.07 2.36, 4.49 2.36, 0.59 2.36 M11.65 2.36 C8.99 2.36, 6.32 2.36, 0.59 2.36 M0.59 2.36 C0.2 2.36, 0 2.16, 0 1.77 M0.59 2.36 C0.2 2.36, 0 2.16, 0 1.77 M0 1.77 C0 1.35, 0 0.94, 0 0.59 M0 1.77 C0 1.4, 0 1.04, 0 0.59 M0 0.59 C0 0.2, 0.2 0, 0.59 0 M0 0.59 C0 0.2, 0.2 0, 0.59 0" stroke="#343a40" stroke-width="2" fill="none"></path></g><g stroke-linecap="round" transform="translate(38.679686483922524 225.3513576248099) rotate(0 6.120820957724533 1.1798952533570173)"><path d="M0.59 0 L11.65 0 L12.24 1.77 L11.65 2.36 L0.59 2.36 L0 1.77 L0.59 0" stroke="none" stroke-width="0" fill="#343a40"></path><path d="M0.59 0 M0.59 0 C4.35 0, 8.11 0, 11.65 0 M0.59 0 C4.56 0, 8.52 0, 11.65 0 M11.65 0 C12.04 0, 12.24 0.2, 12.24 0.59 M11.65 0 C12.04 0, 12.24 0.2, 12.24 0.59 M12.24 0.59 C12.24 0.92, 12.24 1.24, 12.24 1.77 M12.24 0.59 C12.24 1.06, 12.24 1.53, 12.24 1.77 M12.24 1.77 C12.24 2.16, 12.04 2.36, 11.65 2.36 M12.24 1.77 C12.24 2.16, 12.04 2.36, 11.65 2.36 M11.65 2.36 C7.78 2.36, 3.9 2.36, 0.59 2.36 M11.65 2.36 C7.72 2.36, 3.79 2.36, 0.59 2.36 M0.59 2.36 C0.2 2.36, 0 2.16, 0 1.77 M0.59 2.36 C0.2 2.36, 0 2.16, 0 1.77 M0 1.77 C0 1.42, 0 1.06, 0 0.59 M0 1.77 C0 1.51, 0 1.25, 0 0.59 M0 0.59 C0 0.2, 0.2 0, 0.59 0 M0 0.59 C0 0.2, 0.2 0, 0.59 0" stroke="#343a40" stroke-width="2" fill="none"></path></g><g stroke-linecap="round" transform="translate(20.53847650305329 190.47042857039207) rotate(0 24.11446288866233 15.125362843360563)"><path d="M7.56 0 L40.67 0 L43.97 0.47 L46.34 1.89 L47.76 4.25 L48.23 7.56 L48.23 22.69 L47.76 26 L46.34 28.36 L43.97 29.78 L40.67 30.25 L7.56 30.25 L4.25 29.78 L1.89 28.36 L0.47 26 L0 22.69 L0.47 4.25 L1.89 1.89 L4.25 0.47 L7.56 0" stroke="none" stroke-width="0" fill="#343a40"></path><path d="M7.56 0 M7.56 0 C17.3 0, 27.04 0, 40.67 0 M7.56 0 C14.57 0, 21.57 0, 40.67 0 M40.67 0 C45.71 0, 48.23 2.52, 48.23 7.56 M40.67 0 C45.71 0, 48.23 2.52, 48.23 7.56 M48.23 7.56 C48.23 11.2, 48.23 14.84, 48.23 22.69 M48.23 7.56 C48.23 12.64, 48.23 17.72, 48.23 22.69 M48.23 22.69 C48.23 27.73, 45.71 30.25, 40.67 30.25 M48.23 22.69 C48.23 27.73, 45.71 30.25, 40.67 30.25 M40.67 30.25 C28.54 30.25, 16.42 30.25, 7.56 30.25 M40.67 30.25 C28.35 30.25, 16.03 30.25, 7.56 30.25 M7.56 30.25 C2.52 30.25, 0 27.73, 0 22.69 M7.56 30.25 C2.52 30.25, 0 27.73, 0 22.69 M0 22.69 C0 17.62, 0 12.55, 0 7.56 M0 22.69 C0 19.61, 0 16.53, 0 7.56 M0 7.56 C0 2.52, 2.52 0, 7.56 0 M0 7.56 C0 2.52, 2.52 0, 7.56 0" stroke="#343a40" stroke-width="2" fill="none"></path></g><g stroke-linecap="round" transform="translate(15.545308854368159 284.1528691666031) rotate(0 29.070519330231747 19.380346220154507)"><path d="M9.69 0 L48.45 0 L52.69 0.61 L55.72 2.42 L57.54 5.45 L58.14 9.69 L58.14 29.07 L57.54 33.31 L55.72 36.34 L52.69 38.16 L48.45 38.76 L9.69 38.76 L5.45 38.16 L2.42 36.34 L0.61 33.31 L0 29.07 L0.61 5.45 L2.42 2.42 L5.45 0.61 L9.69 0" stroke="none" stroke-width="0" fill="#ced4da"></path><path d="M9.69 0 M9.69 0 C18.83 0, 27.97 0, 48.45 0 M9.69 0 C23.32 0, 36.94 0, 48.45 0 M48.45 0 C54.91 0, 58.14 3.23, 58.14 9.69 M48.45 0 C54.91 0, 58.14 3.23, 58.14 9.69 M58.14 9.69 C58.14 15.24, 58.14 20.8, 58.14 29.07 M58.14 9.69 C58.14 13.82, 58.14 17.96, 58.14 29.07 M58.14 29.07 C58.14 35.53, 54.91 38.76, 48.45 38.76 M58.14 29.07 C58.14 35.53, 54.91 38.76, 48.45 38.76 M48.45 38.76 C37.29 38.76, 26.12 38.76, 9.69 38.76 M48.45 38.76 C39.97 38.76, 31.49 38.76, 9.69 38.76 M9.69 38.76 C3.23 38.76, 0 35.53, 0 29.07 M9.69 38.76 C3.23 38.76, 0 35.53, 0 29.07 M0 29.07 C0 24.9, 0 20.73, 0 9.69 M0 29.07 C0 22.72, 0 16.36, 0 9.69 M0 9.69 C0 3.23, 3.23 0, 9.69 0 M0 9.69 C0 3.23, 3.23 0, 9.69 0" stroke="#343a40" stroke-width="2" fill="none"></path></g><g stroke-linecap="round" transform="translate(10 327.2278344834272) rotate(0 34.158424908424905 4.6756779342329935)"><path d="M2.34 0 L65.98 0 L67.73 0.58 L68.32 2.34 L68.32 7.01 L67.73 8.77 L65.98 9.35 L2.34 9.35 L0.58 8.77 L0 7.01 L0.58 0.58 L2.34 0" stroke="none" stroke-width="0" fill="#ced4da"></path><path d="M2.34 0 M2.34 0 C25.16 0, 47.97 0, 65.98 0 M2.34 0 C17.45 0, 32.56 0, 65.98 0 M65.98 0 C67.54 0, 68.32 0.78, 68.32 2.34 M65.98 0 C67.54 0, 68.32 0.78, 68.32 2.34 M68.32 2.34 C68.32 3.98, 68.32 5.63, 68.32 7.01 M68.32 2.34 C68.32 3.62, 68.32 4.91, 68.32 7.01 M68.32 7.01 C68.32 8.57, 67.54 9.35, 65.98 9.35 M68.32 7.01 C68.32 8.57, 67.54 9.35, 65.98 9.35 M65.98 9.35 C52.4 9.35, 38.83 9.35, 2.34 9.35 M65.98 9.35 C46.02 9.35, 26.05 9.35, 2.34 9.35 M2.34 9.35 C0.78 9.35, 0 8.57, 0 7.01 M2.34 9.35 C0.78 9.35, 0 8.57, 0 7.01 M0 7.01 C0 5.99, 0 4.97, 0 2.34 M0 7.01 C0 5.84, 0 4.66, 0 2.34 M0 2.34 C0 0.78, 0.78 0, 2.34 0 M0 2.34 C0 0.78, 0.78 0, 2.34 0" stroke="#343a40" stroke-width="2" fill="none"></path></g><g stroke-linecap="round" transform="translate(60.36780760609258 330.65227466061225) rotate(0 6.120820957724533 1.1798952533570173)"><path d="M0.59 0 L11.65 0 L12.24 1.77 L11.65 2.36 L0.59 2.36 L0 1.77 L0.59 0" stroke="none" stroke-width="0" fill="#343a40"></path><path d="M0.59 0 M0.59 0 C2.81 0, 5.04 0, 11.65 0 M0.59 0 C4.3 0, 8 0, 11.65 0 M11.65 0 C12.04 0, 12.24 0.2, 12.24 0.59 M11.65 0 C12.04 0, 12.24 0.2, 12.24 0.59 M12.24 0.59 C12.24 0.92, 12.24 1.25, 12.24 1.77 M12.24 0.59 C12.24 1, 12.24 1.41, 12.24 1.77 M12.24 1.77 C12.24 2.16, 12.04 2.36, 11.65 2.36 M12.24 1.77 C12.24 2.16, 12.04 2.36, 11.65 2.36 M11.65 2.36 C8.64 2.36, 5.62 2.36, 0.59 2.36 M11.65 2.36 C7.69 2.36, 3.73 2.36, 0.59 2.36 M0.59 2.36 C0.2 2.36, 0 2.16, 0 1.77 M0.59 2.36 C0.2 2.36, 0 2.16, 0 1.77 M0 1.77 C0 1.39, 0 1.01, 0 0.59 M0 1.77 C0 1.4, 0 1.02, 0 0.59 M0 0.59 C0 0.2, 0.2 0, 0.59 0 M0 0.59 C0 0.2, 0.2 0, 0.59 0" stroke="#343a40" stroke-width="2" fill="none"></path></g><g stroke-linecap="round" transform="translate(38.679686483922524 323.5180242914767) rotate(0 6.120820957724533 1.1798952533570173)"><path d="M0.59 0 L11.65 0 L12.24 1.77 L11.65 2.36 L0.59 2.36 L0 1.77 L0.59 0" stroke="none" stroke-width="0" fill="#343a40"></path><path d="M0.59 0 M0.59 0 C3.11 0, 5.63 0, 11.65 0 M0.59 0 C4.91 0, 9.24 0, 11.65 0 M11.65 0 C12.04 0, 12.24 0.2, 12.24 0.59 M11.65 0 C12.04 0, 12.24 0.2, 12.24 0.59 M12.24 0.59 C12.24 1.01, 12.24 1.44, 12.24 1.77 M12.24 0.59 C12.24 0.97, 12.24 1.35, 12.24 1.77 M12.24 1.77 C12.24 2.16, 12.04 2.36, 11.65 2.36 M12.24 1.77 C12.24 2.16, 12.04 2.36, 11.65 2.36 M11.65 2.36 C8.49 2.36, 5.32 2.36, 0.59 2.36 M11.65 2.36 C8.99 2.36, 6.34 2.36, 0.59 2.36 M0.59 2.36 C0.2 2.36, 0 2.16, 0 1.77 M0.59 2.36 C0.2 2.36, 0 2.16, 0 1.77 M0 1.77 C0 1.4, 0 1.03, 0 0.59 M0 1.77 C0 1.33, 0 0.9, 0 0.59 M0 0.59 C0 0.2, 0.2 0, 0.59 0 M0 0.59 C0 0.2, 0.2 0, 0.59 0" stroke="#343a40" stroke-width="2" fill="none"></path></g><g stroke-linecap="round" transform="translate(20.53847650305329 288.63709523705876) rotate(0 24.11446288866233 15.125362843360563)"><path d="M7.56 0 L40.67 0 L43.97 0.47 L46.34 1.89 L47.76 4.25 L48.23 7.56 L48.23 22.69 L47.76 26 L46.34 28.36 L43.97 29.78 L40.67 30.25 L7.56 30.25 L4.25 29.78 L1.89 28.36 L0.47 26 L0 22.69 L0.47 4.25 L1.89 1.89 L4.25 0.47 L7.56 0" stroke="none" stroke-width="0" fill="#343a40"></path><path d="M7.56 0 M7.56 0 C16.61 0, 25.65 0, 40.67 0 M7.56 0 C14.45 0, 21.34 0, 40.67 0 M40.67 0 C45.71 0, 48.23 2.52, 48.23 7.56 M40.67 0 C45.71 0, 48.23 2.52, 48.23 7.56 M48.23 7.56 C48.23 13.02, 48.23 18.49, 48.23 22.69 M48.23 7.56 C48.23 10.72, 48.23 13.88, 48.23 22.69 M48.23 22.69 C48.23 27.73, 45.71 30.25, 40.67 30.25 M48.23 22.69 C48.23 27.73, 45.71 30.25, 40.67 30.25 M40.67 30.25 C29.06 30.25, 17.45 30.25, 7.56 30.25 M40.67 30.25 C28.3 30.25, 15.94 30.25, 7.56 30.25 M7.56 30.25 C2.52 30.25, 0 27.73, 0 22.69 M7.56 30.25 C2.52 30.25, 0 27.73, 0 22.69 M0 22.69 C0 18.06, 0 13.43, 0 7.56 M0 22.69 C0 17.43, 0 12.17, 0 7.56 M0 7.56 C0 2.52, 2.52 0, 7.56 0 M0 7.56 C0 2.52, 2.52 0, 7.56 0" stroke="#343a40" stroke-width="2" fill="none"></path></g><g stroke-linecap="round" transform="translate(15.545308854368159 382.3195358332698) rotate(0 29.070519330231747 19.380346220154536)"><path d="M9.69 0 L48.45 0 L52.69 0.61 L55.72 2.42 L57.54 5.45 L58.14 9.69 L58.14 29.07 L57.54 33.31 L55.72 36.34 L52.69 38.16 L48.45 38.76 L9.69 38.76 L5.45 38.16 L2.42 36.34 L0.61 33.31 L0 29.07 L0.61 5.45 L2.42 2.42 L5.45 0.61 L9.69 0" stroke="none" stroke-width="0" fill="#ced4da"></path><path d="M9.69 0 M9.69 0 C24.47 0, 39.25 0, 48.45 0 M9.69 0 C23.16 0, 36.64 0, 48.45 0 M48.45 0 C54.91 0, 58.14 3.23, 58.14 9.69 M48.45 0 C54.91 0, 58.14 3.23, 58.14 9.69 M58.14 9.69 C58.14 15.44, 58.14 21.18, 58.14 29.07 M58.14 9.69 C58.14 14.34, 58.14 18.99, 58.14 29.07 M58.14 29.07 C58.14 35.53, 54.91 38.76, 48.45 38.76 M58.14 29.07 C58.14 35.53, 54.91 38.76, 48.45 38.76 M48.45 38.76 C39.65 38.76, 30.85 38.76, 9.69 38.76 M48.45 38.76 C34.03 38.76, 19.61 38.76, 9.69 38.76 M9.69 38.76 C3.23 38.76, 0 35.53, 0 29.07 M9.69 38.76 C3.23 38.76, 0 35.53, 0 29.07 M0 29.07 C0 25.19, 0 21.31, 0 9.69 M0 29.07 C0 24.21, 0 19.34, 0 9.69 M0 9.69 C0 3.23, 3.23 0, 9.69 0 M0 9.69 C0 3.23, 3.23 0, 9.69 0" stroke="#343a40" stroke-width="2" fill="none"></path></g><g stroke-linecap="round" transform="translate(10 425.3945011500939) rotate(0 34.158424908424905 4.675677934232965)"><path d="M2.34 0 L65.98 0 L67.73 0.58 L68.32 2.34 L68.32 7.01 L67.73 8.77 L65.98 9.35 L2.34 9.35 L0.58 8.77 L0 7.01 L0.58 0.58 L2.34 0" stroke="none" stroke-width="0" fill="#ced4da"></path><path d="M2.34 0 M2.34 0 C27.21 0, 52.08 0, 65.98 0 M2.34 0 C27.75 0, 53.16 0, 65.98 0 M65.98 0 C67.54 0, 68.32 0.78, 68.32 2.34 M65.98 0 C67.54 0, 68.32 0.78, 68.32 2.34 M68.32 2.34 C68.32 3.96, 68.32 5.59, 68.32 7.01 M68.32 2.34 C68.32 3.46, 68.32 4.59, 68.32 7.01 M68.32 7.01 C68.32 8.57, 67.54 9.35, 65.98 9.35 M68.32 7.01 C68.32 8.57, 67.54 9.35, 65.98 9.35 M65.98 9.35 C50.71 9.35, 35.45 9.35, 2.34 9.35 M65.98 9.35 C43.88 9.35, 21.77 9.35, 2.34 9.35 M2.34 9.35 C0.78 9.35, 0 8.57, 0 7.01 M2.34 9.35 C0.78 9.35, 0 8.57, 0 7.01 M0 7.01 C0 5.27, 0 3.53, 0 2.34 M0 7.01 C0 5.72, 0 4.44, 0 2.34 M0 2.34 C0 0.78, 0.78 0, 2.34 0 M0 2.34 C0 0.78, 0.78 0, 2.34 0" stroke="#343a40" stroke-width="2" fill="none"></path></g><g stroke-linecap="round" transform="translate(60.36780760609258 428.81894132727894) rotate(0 6.120820957724533 1.1798952533570173)"><path d="M0.59 0 L11.65 0 L12.24 1.77 L11.65 2.36 L0.59 2.36 L0 1.77 L0.59 0" stroke="none" stroke-width="0" fill="#343a40"></path><path d="M0.59 0 M0.59 0 C4.49 0, 8.38 0, 11.65 0 M0.59 0 C2.95 0, 5.32 0, 11.65 0 M11.65 0 C12.04 0, 12.24 0.2, 12.24 0.59 M11.65 0 C12.04 0, 12.24 0.2, 12.24 0.59 M12.24 0.59 C12.24 0.85, 12.24 1.11, 12.24 1.77 M12.24 0.59 C12.24 1, 12.24 1.41, 12.24 1.77 M12.24 1.77 C12.24 2.16, 12.04 2.36, 11.65 2.36 M12.24 1.77 C12.24 2.16, 12.04 2.36, 11.65 2.36 M11.65 2.36 C8.94 2.36, 6.24 2.36, 0.59 2.36 M11.65 2.36 C8.55 2.36, 5.46 2.36, 0.59 2.36 M0.59 2.36 C0.2 2.36, 0 2.16, 0 1.77 M0.59 2.36 C0.2 2.36, 0 2.16, 0 1.77 M0 1.77 C0 1.49, 0 1.22, 0 0.59 M0 1.77 C0 1.31, 0 0.85, 0 0.59 M0 0.59 C0 0.2, 0.2 0, 0.59 0 M0 0.59 C0 0.2, 0.2 0, 0.59 0" stroke="#343a40" stroke-width="2" fill="none"></path></g><g stroke-linecap="round" transform="translate(38.679686483922524 421.6846909581434) rotate(0 6.120820957724533 1.1798952533570173)"><path d="M0.59 0 L11.65 0 L12.24 1.77 L11.65 2.36 L0.59 2.36 L0 1.77 L0.59 0" stroke="none" stroke-width="0" fill="#343a40"></path><path d="M0.59 0 M0.59 0 C3.22 0, 5.85 0, 11.65 0 M0.59 0 C3.72 0, 6.85 0, 11.65 0 M11.65 0 C12.04 0, 12.24 0.2, 12.24 0.59 M11.65 0 C12.04 0, 12.24 0.2, 12.24 0.59 M12.24 0.59 C12.24 0.96, 12.24 1.32, 12.24 1.77 M12.24 0.59 C12.24 0.86, 12.24 1.12, 12.24 1.77 M12.24 1.77 C12.24 2.16, 12.04 2.36, 11.65 2.36 M12.24 1.77 C12.24 2.16, 12.04 2.36, 11.65 2.36 M11.65 2.36 C8.17 2.36, 4.68 2.36, 0.59 2.36 M11.65 2.36 C7.82 2.36, 3.99 2.36, 0.59 2.36 M0.59 2.36 C0.2 2.36, 0 2.16, 0 1.77 M0.59 2.36 C0.2 2.36, 0 2.16, 0 1.77 M0 1.77 C0 1.44, 0 1.12, 0 0.59 M0 1.77 C0 1.38, 0 0.99, 0 0.59 M0 0.59 C0 0.2, 0.2 0, 0.59 0 M0 0.59 C0 0.2, 0.2 0, 0.59 0" stroke="#343a40" stroke-width="2" fill="none"></path></g><g stroke-linecap="round" transform="translate(20.53847650305329 386.80376190372544) rotate(0 24.11446288866233 15.125362843360563)"><path d="M7.56 0 L40.67 0 L43.97 0.47 L46.34 1.89 L47.76 4.25 L48.23 7.56 L48.23 22.69 L47.76 26 L46.34 28.36 L43.97 29.78 L40.67 30.25 L7.56 30.25 L4.25 29.78 L1.89 28.36 L0.47 26 L0 22.69 L0.47 4.25 L1.89 1.89 L4.25 0.47 L7.56 0" stroke="none" stroke-width="0" fill="#343a40"></path><path d="M7.56 0 M7.56 0 C14.86 0, 22.15 0, 40.67 0 M7.56 0 C15.73 0, 23.89 0, 40.67 0 M40.67 0 C45.71 0, 48.23 2.52, 48.23 7.56 M40.67 0 C45.71 0, 48.23 2.52, 48.23 7.56 M48.23 7.56 C48.23 11.69, 48.23 15.81, 48.23 22.69 M48.23 7.56 C48.23 13.51, 48.23 19.45, 48.23 22.69 M48.23 22.69 C48.23 27.73, 45.71 30.25, 40.67 30.25 M48.23 22.69 C48.23 27.73, 45.71 30.25, 40.67 30.25 M40.67 30.25 C30.29 30.25, 19.91 30.25, 7.56 30.25 M40.67 30.25 C32.46 30.25, 24.26 30.25, 7.56 30.25 M7.56 30.25 C2.52 30.25, 0 27.73, 0 22.69 M7.56 30.25 C2.52 30.25, 0 27.73, 0 22.69 M0 22.69 C0 17.3, 0 11.91, 0 7.56 M0 22.69 C0 17.3, 0 11.9, 0 7.56 M0 7.56 C0 2.52, 2.52 0, 7.56 0 M0 7.56 C0 2.52, 2.52 0, 7.56 0" stroke="#343a40" stroke-width="2" fill="none"></path></g><g stroke-linecap="round" transform="translate(290.94803113553115 91.66932648420334) rotate(0 176 172)"><path d="M259.76 21.13 C275.03 26.1, 288.21 38.7, 299.81 49.99 C311.4 61.28, 321.23 74.98, 329.34 88.88 C337.45 102.79, 344.79 117.75, 348.48 133.41 C352.18 149.08, 352.55 166.56, 351.5 182.86 C350.45 199.16, 347.92 215.98, 342.2 231.23 C336.47 246.48, 327.03 261.4, 317.17 274.33 C307.3 287.27, 295.97 299.01, 282.99 308.83 C270.02 318.66, 254.85 327.58, 239.34 333.3 C223.84 339.02, 206.58 342.11, 189.97 343.17 C173.37 344.23, 155.81 342.75, 139.71 339.66 C123.6 336.56, 107.86 332.02, 93.35 324.59 C78.84 317.17, 64.33 306.5, 52.63 295.13 C40.93 283.76, 31.02 270.57, 23.12 256.38 C15.23 242.2, 8.88 225.96, 5.24 210.02 C1.61 194.07, 0.4 176.94, 1.3 160.71 C2.19 144.48, 5.03 127.78, 10.6 112.63 C16.18 97.48, 25.03 82.81, 34.74 69.82 C44.45 56.84, 55.8 44.59, 68.84 34.7 C81.88 24.81, 97.51 16.31, 113 10.48 C128.49 4.64, 145.33 0.97, 161.78 -0.31 C178.23 -1.59, 194.43 -1.34, 211.71 2.79 C228.99 6.92, 255.87 19.66, 265.46 24.48 C275.05 29.29, 270.58 29.38, 269.25 31.68 M131.92 6.38 C146.7 -0.04, 165.89 0.38, 182.55 0.99 C199.2 1.6, 216.21 5.14, 231.86 10.02 C247.51 14.9, 262.95 21.13, 276.46 30.25 C289.96 39.38, 302.46 51.99, 312.9 64.77 C323.34 77.55, 332.97 91.98, 339.12 106.93 C345.27 121.89, 348.04 138.53, 349.78 154.5 C351.53 170.47, 352.31 186.89, 349.6 202.76 C346.89 218.63, 340.81 235.3, 333.51 249.74 C326.21 264.17, 317.03 277.71, 305.8 289.38 C294.57 301.04, 280.52 311.45, 266.14 319.73 C251.75 328.01, 235.35 334.86, 219.5 339.07 C203.65 343.29, 187.48 345.45, 171.05 345.02 C154.62 344.59, 136.59 341.9, 120.93 336.5 C105.28 331.1, 90.91 321.95, 77.11 312.65 C63.31 303.34, 48.99 293.35, 38.14 280.67 C27.29 267.98, 18.03 251.53, 12.02 236.52 C6 221.51, 3.74 206.3, 2.03 190.6 C0.32 174.91, -0.75 158.49, 1.77 142.35 C4.28 126.21, 9.68 108.5, 17.12 93.78 C24.56 79.07, 35.16 65.85, 46.43 54.08 C57.7 42.3, 70.63 31.27, 84.73 23.11 C98.83 14.95, 123.19 7.32, 131.04 5.11 C138.89 2.91, 131.11 7.09, 131.83 9.88" stroke="#000000" stroke-width="1" fill="none"></path></g><g transform="translate(423.44803113553115 21.16932648420334) rotate(0 37.5 12.5)"><text x="0" y="18" font-family="Virgil, Segoe UI Emoji" font-size="20px" fill="#000000" text-anchor="start" style="white-space: pre;" direction="ltr">mempool</text></g><g stroke-linecap="round"><g transform="translate(76.94803113553115 109.66932648420334) rotate(0 116.3891345064701 23.0401510686508)"><path d="M0.18 -0.73 C49.35 1.81, 98.72 0.63, 184.05 2.23 M-0.07 0.23 C67.55 1.72, 136.7 1.01, 184.63 2.78 M183.82 1.76 C197.12 15.57, 212.99 26.28, 232.85 46.81 M183.91 1.51 C193.27 11.24, 203.43 20.25, 231.96 46.2" stroke="#000000" stroke-width="1" fill="none"></path></g><g transform="translate(76.94803113553115 109.66932648420334) rotate(0 116.3891345064701 23.0401510686508)"><path d="M204.38 34.11 C210.82 38.76, 217.52 40.14, 232.02 46.44 M204.13 35.07 C213.83 39.95, 225.11 42.71, 232.6 46.98" stroke="#000000" stroke-width="1" fill="none"></path></g><g transform="translate(76.94803113553115 109.66932648420334) rotate(0 116.3891345064701 23.0401510686508)"><path d="M218.18 18.92 C220.75 27.68, 223.68 33.21, 232.02 46.44 M217.93 19.88 C222.44 30.39, 228.62 38.77, 232.6 46.98" stroke="#000000" stroke-width="1" fill="none"></path></g></g><g stroke-linecap="round"><g transform="translate(83.94803113553127 212.05490487619153) rotate(0 92.74765578241704 -2.6112575063039287)"><path d="M-1.05 -1.6 C63.95 -2.69, 126.84 -1.78, 185.62 -4.1 M0.57 -0.22 C56.14 -1.22, 113.62 -2.04, 186.54 -5" stroke="#000000" stroke-width="1" fill="none"></path></g><g transform="translate(83.94803113553127 212.05490487619153) rotate(0 92.74765578241704 -2.6112575063039287)"><path d="M157.68 4.64 C169.21 1.01, 178.7 -0.35, 185.85 -4.62 M159.3 6.01 C166.84 2.2, 176.29 -0.67, 186.77 -5.52" stroke="#000000" stroke-width="1" fill="none"></path></g><g transform="translate(83.94803113553127 212.05490487619153) rotate(0 92.74765578241704 -2.6112575063039287)"><path d="M156.97 -15.87 C168.94 -12.59, 178.67 -7.04, 185.85 -4.62 M158.58 -14.5 C166.33 -12.09, 175.99 -8.75, 186.77 -5.52" stroke="#000000" stroke-width="1" fill="none"></path></g></g><g stroke-linecap="round"><g transform="translate(82.94803113553115 404.66932648420334) rotate(0 108.24078263700858 -18.925806925446693)"><path d="M-0.7 1.19 C58.41 0.83, 113.39 0.92, 162.24 -0.52 M-0.71 -0.39 C35.7 0.48, 70.11 -1.07, 163.25 0.37 M163.92 2.18 C179.19 -12.49, 196.05 -25.17, 217.2 -40.03 M162.75 0.19 C183.54 -14.09, 204.55 -30.49, 216.7 -39.8" stroke="#000000" stroke-width="1" fill="none"></path></g><g transform="translate(82.94803113553115 404.66932648420334) rotate(0 108.24078263700858 -18.925806925446693)"><path d="M199.89 -13.3 C207.63 -23.49, 211.28 -32.59, 215.94 -41.32 M199.88 -14.89 C204.18 -19.17, 206.69 -26.44, 216.95 -40.44" stroke="#000000" stroke-width="1" fill="none"></path></g><g transform="translate(82.94803113553115 404.66932648420334) rotate(0 108.24078263700858 -18.925806925446693)"><path d="M187.39 -29.57 C199.53 -34.02, 207.55 -37.44, 215.94 -41.32 M187.38 -31.16 C194.53 -31.96, 199.76 -35.69, 216.95 -40.44" stroke="#000000" stroke-width="1" fill="none"></path></g></g><g stroke-linecap="round"><g transform="translate(89.53834498736444 302.63399040017663) rotate(0 95.70132150141629 -1.7866931587840043)"><path d="M-1.61 -0.82 C52.86 -1.14, 104.8 0.42, 193.02 -4.16 M-0.69 0.59 C47.17 -1.82, 94.18 -1.63, 192.77 -3.01" stroke="#000000" stroke-width="1" fill="none"></path></g><g transform="translate(89.53834498736444 302.63399040017663) rotate(0 95.70132150141629 -1.7866931587840043)"><path d="M163.1 6.77 C172.83 3.99, 180.08 3.36, 192.87 -4.68 M164.02 8.18 C171.33 4.52, 177.76 2.71, 192.62 -3.53" stroke="#000000" stroke-width="1" fill="none"></path></g><g transform="translate(89.53834498736444 302.63399040017663) rotate(0 95.70132150141629 -1.7866931587840043)"><path d="M162.85 -13.75 C172.78 -10.96, 180.1 -6.03, 192.87 -4.68 M163.77 -12.34 C171.09 -10.95, 177.59 -7.71, 192.62 -3.53" stroke="#000000" stroke-width="1" fill="none"></path></g></g><g stroke-linecap="round"><g transform="translate(645.0414600285953 288.6408176868798) rotate(0 35.416167264799356 -0.46581083081485986)"><path d="M0.39 0.61 C24.56 0.71, 47.13 -0.38, 69.2 0.96 M0.19 -0.92 C25.64 -0.48, 50.34 -1.3, 70.64 -1.9" stroke="#000000" stroke-width="1" fill="none"></path></g><g transform="translate(645.0414600285953 288.6408176868798) rotate(0 35.416167264799356 -0.46581083081485986)"><path d="M43.14 9.78 C53.23 6.4, 61.68 1.92, 69.88 0.02 M42.95 8.25 C53.48 5.19, 63.23 0.78, 71.32 -2.84" stroke="#000000" stroke-width="1" fill="none"></path></g><g transform="translate(645.0414600285953 288.6408176868798) rotate(0 35.416167264799356 -0.46581083081485986)"><path d="M42.55 -10.73 C52.77 -7.23, 61.42 -4.83, 69.88 0.02 M42.36 -12.26 C53.03 -8.04, 62.99 -5.16, 71.32 -2.84" stroke="#000000" stroke-width="1" fill="none"></path></g></g><g stroke-linecap="round" transform="translate(730.0477419535334 271.42889703519506) rotate(0 55.73602002319785 6.589480199786948)"><path d="M1.56 -0.62 C44.51 -0.89, 88.44 0.14, 109.78 -0.59 M0.23 -0.68 C43.32 -0.16, 85.87 0.5, 111.84 -0.45 M111.33 -1.26 C112.33 2.63, 112.3 6.75, 111.91 14.37 M111.18 -0.43 C110.92 3.35, 111.33 7.27, 111.16 13.71 M110.78 13.47 C78.89 14.29, 42.84 12.13, -0.87 14.39 M110.99 14.16 C83.84 14.24, 53.32 14.19, 0.04 12.28 M-0.24 13.57 C-1.19 7.77, 0.99 3.63, 1.07 0.35 M0.63 13.27 C-0.6 9.41, -0.08 4.85, 0.43 0.06" stroke="#000000" stroke-width="1" fill="none"></path></g><g stroke-linecap="round"><g transform="translate(734.7269945625333 275.3602892926671) rotate(0 0.4329681042407856 3.7729827374957665)"><path d="M0.94 -0.37 C0.99 0.82, 0.65 6.28, 0.65 7.74 M-0.03 -1.62 C-0.11 -0.28, -0.08 7.85, 0.04 9.16" stroke="#000000" stroke-width="1" fill="none"></path></g></g><g stroke-linecap="round"><g transform="translate(739.0269153399161 274.4766993359479) rotate(0 0.1723357007000459 4.429431593049543)"><path d="M-0.37 0.65 C-0.5 1.98, -0.35 7.86, -0.22 8.91 M1.63 -0.05 C1.27 0.87, -0.99 5.99, -1.29 7.29" stroke="#000000" stroke-width="1" fill="none"></path></g></g><g stroke-linecap="round"><g transform="translate(742.2223972364343 274.98760958331513) rotate(0 0.27011220196175145 3.4888974408844717)"><path d="M0.65 -0.22 C0.65 1.23, 1.23 7.06, 0.95 8.36 M-0.47 -1.38 C-0.62 -0.27, 0.2 4.76, 0.5 6.45" stroke="#000000" stroke-width="1" fill="none"></path></g></g><g stroke-linecap="round"><g transform="translate(745.9871621823047 274.0329611155898) rotate(0 -0.6990142384870524 4.176558233722318)"><path d="M-0.22 0.95 C-0.09 2, 0.42 5.6, 0.4 6.95 M-1.8 0.4 C-1.76 1.51, -0.42 6.81, -0.34 7.95" stroke="#000000" stroke-width="1" fill="none"></path></g></g><g stroke-linecap="round"><g transform="translate(749.1208407356269 274.8019028096627) rotate(0 0.07186964855054612 4.26053113169894)"><path d="M0.95 0.4 C0.67 1.7, -1.04 6.32, -1.02 7.61 M-0.01 -0.44 C0.02 1.06, 1.02 7.3, 1.16 8.96" stroke="#000000" stroke-width="1" fill="none"></path></g></g><g stroke-linecap="round"><g transform="translate(752.9704532539679 274.85198034279495) rotate(0 -0.5454083209439204 4.00687177696193)"><path d="M0.4 -1.02 C0.38 0.33, -0.31 7.5, -0.36 9.03 M-0.85 1.06 C-1.04 2.01, -1.54 6.05, -1.49 7.47" stroke="#000000" stroke-width="1" fill="none"></path></g></g><g stroke-linecap="round"><g transform="translate(756.2856918686955 274.90278059728286) rotate(0 0.0257274895906221 4.061821236088122)"><path d="M-1.02 -0.36 C-1 0.93, 0.86 6.67, 1.07 8.1 M0.65 -1.59 C0.52 -0.12, 0.86 7.83, 0.68 9.71" stroke="#000000" stroke-width="1" fill="none"></path></g></g><g stroke-linecap="round"><g transform="translate(759.7608597232531 274.0727019906059) rotate(0 0.46117419929248626 4.377440865863321)"><path d="M-0.36 1.07 C-0.4 2.6, 0.03 7.16, 0.14 8.17 M1.66 0.58 C1.43 1.82, -0.4 4.92, -0.74 6.16" stroke="#000000" stroke-width="1" fill="none"></path></g></g><g stroke-linecap="round"><g transform="translate(763.1946568701694 274.5608525023154) rotate(0 0.21975179169589865 3.704505435679323)"><path d="M1.07 0.14 C1.27 1.57, 0.52 6.95, 0.21 8.24 M0.17 -0.83 C0.32 0.25, -0.88 4.6, -0.63 6.27" stroke="#000000" stroke-width="1" fill="none"></path></g></g><g stroke-linecap="round"><g transform="translate(766.7016540756206 274.2776723164768) rotate(0 -0.47929176653462946 3.7623079385601272)"><path d="M0.14 0.21 C0.24 1.22, 0.31 5.84, 0.28 7.14 M-1.25 -0.73 C-1.24 0.93, -0.59 6.57, -0.52 8.25" stroke="#000000" stroke-width="1" fill="none"></path></g></g><g stroke-linecap="round"><g transform="translate(777.2832341291144 274.49674717338627) rotate(0 0.16166090176443504 4.39453335709797)"><path d="M0.21 0.28 C-0.11 1.57, -0.79 6.8, -0.82 7.9 M-1.14 -0.62 C-1.17 0.86, 1.39 8.02, 1.46 9.41" stroke="#000000" stroke-width="1" fill="none"></path></g></g><g stroke-linecap="round"><g transform="translate(770.2060565793911 274.85999565903074) rotate(0 -0.49256813324882387 4.37527328111625)"><path d="M0.28 -0.82 C0.25 0.48, 0.16 6.41, -0.06 8.01 M-1.03 1.37 C-1.24 2.86, -1.43 8.65, -1.04 9.57" stroke="#000000" stroke-width="1" fill="none"></path></g></g><g stroke-linecap="round"><g transform="translate(780.7315937599526 274.59280187333076) rotate(0 0.03706456110808176 3.384573537781108)"><path d="M-0.82 -0.06 C-0.85 1.05, -0.23 5.51, 0.05 6.92 M0.95 -1.14 C0.75 0.06, -0.8 6.67, -0.88 7.91" stroke="#000000" stroke-width="1" fill="none"></path></g></g><g stroke-linecap="round"><g transform="translate(774.0179534872052 274.41752817607846) rotate(0 -0.21607349901466932 3.9097008176932206)"><path d="M-0.06 0.05 C-0.28 1.65, -1.13 7.57, -1.04 8.8 M-1.55 -0.98 C-1.44 0.36, 0.88 5.54, 1.12 7.11" stroke="#000000" stroke-width="1" fill="none"></path></g></g><g stroke-linecap="round"><g transform="translate(784.4048386238071 274.82966211708225) rotate(0 -0.2736956988288739 3.681489156865723)"><path d="M0.05 -1.04 C0.32 0.37, 0.93 6.96, 0.83 8.41 M-1.39 1.02 C-1.13 2.07, 0.36 5.22, 0.32 6.52" stroke="#000000" stroke-width="1" fill="none"></path></g></g><g stroke-linecap="round"><g transform="translate(793.2426477439874 275.70110796760156) rotate(0 13.565709456546074 0.14719536602498806)"><path d="M-1.04 0.83 C3.66 0.74, 23.43 -0.4, 28.18 -0.54 M0.61 0.23 C5.2 0.28, 23.15 0.53, 27.46 0.71" stroke="#000000" stroke-width="1" fill="none"></path></g></g><g stroke-linecap="round"><g transform="translate(793.5478528145934 284.78502369657963) rotate(0 13.833765175857138 -4.318524153596684)"><path d="M0.1 -2.86 C-0.08 -3.68, -0.15 -4.68, -0.35 -5.68 M0.03 -2.58 C-0.1 -3.47, -0.18 -4.22, -0.15 -6.01 M-1 -4.29 C7.66 -6.59, 14.64 -6.6, 27.98 -4.12 M-0.48 -5.28 C9.73 -6.12, 20.47 -6.17, 28.67 -4.81 M27.7 -6.06 C27.76 -4.31, 27.95 -3.21, 27.78 -2.75 M27.82 -5.72 C27.73 -5.08, 27.66 -4.14, 27.71 -2.63" stroke="#000000" stroke-width="1" fill="none"></path></g></g><g stroke-linecap="round" transform="translate(829.0646660162436 274.87339804872005) rotate(0 3.4944213180688166 3.4944213180688166)"><path d="M2.94 -0.93 C3.74 -1.11, 5.27 -0.7, 6.02 -0.2 C6.78 0.3, 7.28 1.1, 7.45 2.09 C7.63 3.08, 7.5 5.04, 7.05 5.75 C6.61 6.45, 5.63 6.22, 4.78 6.34 C3.92 6.46, 2.71 6.71, 1.93 6.46 C1.14 6.2, 0.43 5.38, 0.07 4.83 C-0.3 4.28, -0.46 3.87, -0.27 3.18 C-0.07 2.48, 0.51 1.17, 1.25 0.65 C2 0.13, 3.84 0.2, 4.21 0.07 C4.57 -0.06, 3.63 -0.22, 3.44 -0.15 M4.3 -0.36 C4.95 -0.21, 7.2 0.48, 7.53 1.28 C7.87 2.08, 6.76 3.37, 6.31 4.45 C5.86 5.53, 5.12 7.11, 4.85 7.78 C4.58 8.44, 5.58 8.49, 4.71 8.42 C3.84 8.36, 0.38 8.37, -0.39 7.39 C-1.16 6.41, -0.16 3.4, 0.08 2.54 C0.32 1.69, 0.44 2.71, 1.07 2.26 C1.7 1.82, 3.15 0.42, 3.86 -0.13 C4.57 -0.67, 5.36 -1.28, 5.33 -1 C5.3 -0.72, 3.94 1.08, 3.69 1.55" stroke="#000000" stroke-width="1" fill="none"></path></g><g stroke-linecap="round" transform="translate(730.3223036285278 284.88241910976063) rotate(0 55.73602002319785 6.589480199786948)"><path d="M-0.52 0.03 C40.27 0.29, 80.46 1.79, 109.97 1.25 M-0.33 -0.26 C28.59 -1.46, 58.13 -1.8, 111.2 -0.16 M111.56 -0.42 C111.11 3.94, 111.6 9.87, 112.37 13.06 M111.18 -0.26 C111.48 3.12, 112.06 7.49, 112.11 12.53 M112.12 14.11 C69.72 11.82, 24.92 10.46, -1.56 14.78 M111.57 12.92 C84.43 14.44, 58.09 12.52, 0.48 13.01 M-1.25 13.28 C-0.68 9.46, 0.44 6.89, 0.43 -0.39 M-0.28 13.68 C0.69 10.2, 0.08 6.8, -0.29 0.22" stroke="#000000" stroke-width="1" fill="none"></path></g><g stroke-linecap="round"><g transform="translate(736.0997498396712 288.3890717907668) rotate(0 -0.028960616877384382 4.143207003100997)"><path d="M-0.31 0.02 C-0.48 1.41, -0.41 6.38, -0.55 7.84 M1.73 -1.02 C1.32 0.62, -1.69 8, -1.79 9.31" stroke="#000000" stroke-width="1" fill="none"></path></g></g><g stroke-linecap="round"><g transform="translate(739.5202878324378 288.0007654696741) rotate(0 -0.7131332898296705 3.6004149597922606)"><path d="M0.02 -0.55 C0.09 0.64, -0.25 5.55, -0.13 6.82 M-1.43 1.78 C-1.49 3.09, -1.45 6.73, -1.14 7.75" stroke="#000000" stroke-width="1" fill="none"></path></g></g><g stroke-linecap="round"><g transform="translate(742.9036941917045 288.32900038068186) rotate(0 0.1315924988775805 3.748963298429004)"><path d="M-0.55 -0.13 C-0.69 1.33, -1.09 7.26, -1.15 8.74 M1.36 -1.24 C1.6 -0.13, 0.94 5.69, 0.96 7.02" stroke="#000000" stroke-width="1" fill="none"></path></g></g><g stroke-linecap="round"><g transform="translate(746.1495925800962 288.40327439823204) rotate(0 -0.4389483809424064 3.4901881533900507)"><path d="M-0.13 -1.15 C0 0.12, 0.63 5.62, 0.78 7.06 M-1.65 0.87 C-1.62 2.31, -0.1 6.84, 0.23 8.13" stroke="#000000" stroke-width="1" fill="none"></path></g></g><g stroke-linecap="round"><g transform="translate(749.6297392350109 287.8305324233681) rotate(0 0.12258925327239467 4.424301703799699)"><path d="M-1.15 0.78 C-1.21 2.25, -1.02 7.45, -0.9 8.71 M0.45 0.14 C0.81 1.28, 1.65 5.97, 1.34 6.98" stroke="#000000" stroke-width="1" fill="none"></path></g></g><g stroke-linecap="round"><g transform="translate(752.5151664975594 288.44668867447507) rotate(0 0.28516227288707796 3.9672557729521998)"><path d="M0.78 -0.9 C0.92 0.55, 0.81 5.87, 0.75 7.53 M-0.28 1.24 C-0.21 2.95, 0.18 7.83, 0.2 8.83" stroke="#000000" stroke-width="1" fill="none"></path></g></g><g stroke-linecap="round"><g transform="translate(756.6850720354589 287.15226020602614) rotate(0 -0.3924310019518771 4.230376078713874)"><path d="M-0.9 0.75 C-0.78 2.01, -0.77 7.23, -0.44 8.36 M0.83 0.1 C0.85 0.92, -1.62 5.02, -1.61 6.45" stroke="#000000" stroke-width="1" fill="none"></path></g></g><g stroke-linecap="round"><g transform="translate(759.568501916486 288.42581922127204) rotate(0 0.17538070845887432 3.670164945576545)"><path d="M0.75 -0.44 C0.69 1.22, 0.59 7.7, 0.4 9.05 M-0.32 -1.71 C-0.57 -0.28, -0.16 5.75, -0.34 7.5" stroke="#000000" stroke-width="1" fill="none"></path></g></g><g stroke-linecap="round"><g transform="translate(763.3133513992882 287.4991840250898) rotate(0 0.5957756425218577 4.234763199313733)"><path d="M-0.44 0.4 C-0.1 1.54, 1.07 6.47, 1.09 7.57 M1.54 -0.43 C1.88 0.81, 1.17 7.53, 0.71 8.9" stroke="#000000" stroke-width="1" fill="none"></path></g></g><g stroke-linecap="round"><g transform="translate(767.2243303680777 287.006172878235) rotate(0 -0.6295561166095922 4.8224251956485205)"><path d="M0.4 1.09 C0.21 2.44, -0.16 6.6, -0.39 7.65 M-0.85 0.61 C-1.3 2.18, -1.92 7.72, -1.54 9.03" stroke="#000000" stroke-width="1" fill="none"></path></g></g><g stroke-linecap="round"><g transform="translate(777.565410553301 288.5675571141196) rotate(0 -0.1644871907635661 3.194650272353755)"><path d="M1.09 -0.39 C1.11 0.71, -0.04 5.74, -0.31 7 M0.2 -1.64 C0.08 -0.46, -1.12 6.41, -1.42 8.03" stroke="#000000" stroke-width="1" fill="none"></path></g></g><g stroke-linecap="round"><g transform="translate(770.279775706683 288.5152708969723) rotate(0 0.3284271271364787 3.5813279099010344)"><path d="M-0.39 -0.31 C-0.62 0.75, -0.9 6.2, -0.96 7.42 M1.61 -1.52 C1.71 0.21, 1.23 7.12, 1.24 8.68" stroke="#000000" stroke-width="1" fill="none"></path></g></g><g stroke-linecap="round"><g transform="translate(781.3388051551922 288.3056876087632) rotate(0 -0.019319126894629335 3.6732832274625196)"><path d="M-0.31 -0.96 C-0.58 0.3, -0.43 5.75, -0.54 7.18 M1.73 1.15 C1.16 2.58, -1.72 7.04, -1.77 8.31" stroke="#000000" stroke-width="1" fill="none"></path></g></g><g stroke-linecap="round"><g transform="translate(773.8390094825575 287.7852902398688) rotate(0 0.3109101233767433 3.7614832061568393)"><path d="M-0.96 -0.54 C-1.03 0.68, -0.89 5.63, -0.78 7.02 M0.73 1.79 C1.08 3.16, 1.85 6.86, 1.52 8.06" stroke="#000000" stroke-width="1" fill="none"></path></g></g><g stroke-linecap="round"><g transform="translate(784.4829270895791 287.641016945075) rotate(0 0.31947179275618964 4.112654759664309)"><path d="M-0.54 -0.78 C-0.64 0.65, -1 6.11, -0.94 7.64 M1.38 1.42 C1.67 3.12, 1.68 8.2, 1.27 9.01" stroke="#000000" stroke-width="1" fill="none"></path></g></g><g stroke-linecap="round"><g transform="translate(793.3189375034619 289.2783028172623) rotate(0 13.313244977338172 0.21298817649019952)"><path d="M-0.78 -0.94 C3.95 -0.88, 22.59 -0.25, 27.41 -0.19 M1.01 1.18 C5.64 1.47, 21.86 1.37, 26.29 1.25" stroke="#000000" stroke-width="1" fill="none"></path></g></g><g stroke-linecap="round"><g transform="translate(793.7451281665583 299.2835004418747) rotate(0 13.894029726006579 -5.085926065611517)"><path d="M-0.11 -2.77 C0.1 -3.68, 0.24 -4.32, -0.15 -5.96 M0.09 -2.73 C-0.1 -3.63, 0.06 -4.47, -0.11 -5.88 M1.88 -7.86 C8.75 -6.05, 12.12 -5.44, 28.61 -3.95 M-0.82 -5.09 C7.18 -4.8, 15.86 -5.49, 27.43 -6.05 M27.84 -5.82 C27.6 -4.24, 27.72 -3.47, 27.71 -2.62 M27.74 -5.81 C27.58 -4.88, 27.57 -3.91, 27.81 -2.31" stroke="#000000" stroke-width="1" fill="none"></path></g></g><g stroke-linecap="round" transform="translate(829.339227691232 288.3269201232849) rotate(0 3.4944213180688166 3.4944213180688166)"><path d="M4.14 -0.27 C4.89 -0.39, 5.43 0.12, 5.92 0.88 C6.42 1.64, 6.98 3.49, 7.13 4.29 C7.29 5.08, 7.44 5.26, 6.87 5.63 C6.31 6, 4.48 6.42, 3.73 6.5 C2.99 6.57, 3.03 6.38, 2.38 6.1 C1.73 5.82, 0.28 5.27, -0.17 4.81 C-0.61 4.34, -0.75 3.87, -0.28 3.31 C0.19 2.75, 2.05 1.82, 2.67 1.44 C3.3 1.07, 3.11 1.38, 3.47 1.04 C3.83 0.71, 4.63 -0.56, 4.83 -0.57 M3.74 -0.81 C4.64 -0.76, 7.16 0.23, 7.89 1.17 C8.61 2.12, 8.45 4.06, 8.07 4.86 C7.69 5.67, 6.49 5.41, 5.59 6 C4.7 6.6, 3.44 8.66, 2.71 8.41 C1.97 8.16, 1.52 5.31, 1.19 4.49 C0.86 3.67, 0.88 3.83, 0.73 3.49 C0.57 3.14, -0.06 3.22, 0.28 2.42 C0.62 1.62, 1.97 -0.86, 2.78 -1.32 C3.59 -1.78, 4.8 -0.71, 5.14 -0.32 C5.49 0.06, 4.74 0.77, 4.87 1.01" stroke="#000000" stroke-width="1" fill="none"></path></g><g stroke-linecap="round" transform="translate(730.3223036285278 298.061379509334) rotate(0 55.73602002319785 6.589480199786948)"><path d="M0.66 -0.95 C26.29 0.32, 48.72 -0.28, 110.78 0.29 M-0.39 -0.44 C43.2 -0.34, 84.79 0.19, 110.99 0.98 M112.67 0.05 C110.41 5.64, 112.21 11.61, 111.24 13.57 M111.08 0.53 C111.55 2.89, 111.2 5.46, 112.11 13.27 M110.95 14.49 C88.88 11.09, 66.08 12.09, -0.17 13.97 M110.76 12.74 C69.34 12.43, 29.54 13.81, 0.06 13.21 M-0.1 12.8 C0.62 8.79, 0.72 5.87, 1.32 -1.04 M0.58 13.57 C0.56 10.58, 0.08 7.16, 0.39 0.57" stroke="#000000" stroke-width="1" fill="none"></path></g><g stroke-linecap="round"><g transform="translate(735.5206691048886 301.3192000803531) rotate(0 0.06632816915976036 4.528634169701689)"><path d="M0.4 -0.57 C0.61 0.8, 1.09 6.67, 0.96 8.05 M-0.85 1.74 C-0.68 3.34, 0.6 8.44, 0.52 9.63" stroke="#000000" stroke-width="1" fill="none"></path></g></g><g stroke-linecap="round"><g transform="translate(739.1858721691754 301.0477318059481) rotate(0 0.2552307865116745 4.666439992412194)"><path d="M-0.57 0.96 C-0.53 2.16, 0.03 6.48, 0.08 7.58 M1.33 0.42 C1.24 1.75, -0.4 7.54, -0.82 8.91" stroke="#000000" stroke-width="1" fill="none"></path></g></g><g stroke-linecap="round"><g transform="translate(743.1071995242276 301.3397064604707) rotate(0 -0.2870636118901757 4.08290485091436)"><path d="M0.96 0.08 C0.83 1.46, -0.16 6.35, -0.39 7.69 M0.01 -0.92 C-0.35 0.69, -1.3 7.34, -1.54 9.08" stroke="#000000" stroke-width="1" fill="none"></path></g></g><g stroke-linecap="round"><g transform="translate(746.0334929057533 301.50487463137995) rotate(0 -0.6751615422625719 3.6180896081768026)"><path d="M0.08 -0.39 C0.13 0.71, -0.29 5.99, -0.27 7.55 M-1.33 -1.63 C-1.41 -0.45, -1.5 7.41, -1.37 8.87" stroke="#000000" stroke-width="1" fill="none"></path></g></g><g stroke-linecap="round"><g transform="translate(749.6975962773543 301.9785594476853) rotate(0 0.017442571381138805 4.151507424785962)"><path d="M-0.39 -0.27 C-0.61 1.07, -0.64 6.63, -0.41 8.14 M1.61 -1.46 C1.11 0.09, -1.43 8.38, -1.58 9.77" stroke="#000000" stroke-width="1" fill="none"></path></g></g><g stroke-linecap="round"><g transform="translate(753.082458007759 301.83170786969384) rotate(0 0.5508603879902694 3.635682392943835)"><path d="M-0.27 -0.41 C-0.26 1.14, -0.01 7.57, 0.17 8.95 M1.78 -1.68 C1.65 -0.41, -0.47 5.54, -0.68 7.34" stroke="#000000" stroke-width="1" fill="none"></path></g></g><g stroke-linecap="round"><g transform="translate(756.3998527809065 301.04346386565925) rotate(0 0.5931885223333211 4.001259140227205)"><path d="M-0.41 0.17 C-0.18 1.68, 0.93 7.56, 0.98 8.78 M1.57 -0.78 C1.76 0.42, 0.97 5.53, 0.55 7.09" stroke="#000000" stroke-width="1" fill="none"></path></g></g><g stroke-linecap="round"><g transform="translate(760.2492425162784 300.9744424145092) rotate(0 -0.18009739254546275 4.897364105208993)"><path d="M0.17 0.98 C0.36 2.36, 0.93 6.78, 0.82 7.86 M-1.19 0.46 C-1.07 2.07, 0.35 8, 0.3 9.34" stroke="#000000" stroke-width="1" fill="none"></path></g></g><g stroke-linecap="round"><g transform="translate(763.8510790980197 300.70210912441485) rotate(0 -0.062251513148680715 4.490753664448135)"><path d="M0.98 0.82 C1.04 2.04, 0.15 6.18, -0.11 7.49 M0.04 0.2 C-0.04 1.57, -0.84 7.69, -1.11 8.78" stroke="#000000" stroke-width="1" fill="none"></path></g></g><g stroke-linecap="round"><g transform="translate(767.0510730683188 301.45914339136743) rotate(0 -0.42552655629356195 3.7481676974140328)"><path d="M0.82 -0.11 C0.71 0.97, -0.46 6.18, -0.47 7.44 M-0.21 -1.21 C-0.53 -0.06, -1.76 7.09, -1.67 8.7" stroke="#000000" stroke-width="1" fill="none"></path></g></g><g stroke-linecap="round"><g transform="translate(778.1006681589199 301.43170117636225) rotate(0 -1.0032195468593272 3.461067558977959)"><path d="M-0.11 -0.47 C-0.36 0.84, -0.45 7.36, -0.52 8.69 M-1.62 -1.77 C-2.16 -0.87, -1.75 5.23, -1.74 6.95" stroke="#000000" stroke-width="1" fill="none"></path></g></g><g stroke-linecap="round"><g transform="translate(769.9951613296059 301.4632204176795) rotate(0 0.5020247741834964 4.089908053655364)"><path d="M-0.47 -0.52 C-0.49 0.74, 0.73 6.01, 0.73 7.44 M1.48 1.82 C1.3 3.24, 0.66 7.43, 0.16 8.7" stroke="#000000" stroke-width="1" fill="none"></path></g></g><g stroke-linecap="round"><g transform="translate(781.1900735899355 300.6980265627013) rotate(0 -0.1706280024257012 4.426839198543888)"><path d="M-0.52 0.73 C-0.59 2.06, -0.63 6.39, -0.52 7.5 M1.4 0.07 C1.14 1.6, -1.41 7.4, -1.75 8.79" stroke="#000000" stroke-width="1" fill="none"></path></g></g><g stroke-linecap="round"><g transform="translate(774.0419641111928 300.70614892239297) rotate(0 -0.46541128329465664 4.57308837034202)"><path d="M0.73 -0.52 C0.73 0.91, -0.25 6.46, -0.47 8.07 M-0.35 1.82 C-0.5 3.51, -1.44 8.74, -1.66 9.67" stroke="#000000" stroke-width="1" fill="none"></path></g></g><g stroke-linecap="round"><g transform="translate(784.2625460715128 301.46331986472904) rotate(0 0.31233699725009956 3.430338546707503)"><path d="M-0.52 -0.47 C-0.42 0.64, -0.17 5.79, 0.11 7.38 M1.4 -1.76 C1.41 -0.56, -0.72 7.1, -0.78 8.62" stroke="#000000" stroke-width="1" fill="none"></path></g></g><g stroke-linecap="round"><g transform="translate(793.3663939187074 302.5032501920531) rotate(0 14.547020084085716 0.15094437345396727)"><path d="M-0.47 0.11 C3.94 0.39, 22.26 1, 27.15 1.18 M1.49 -0.88 C6.23 -0.85, 25.02 -0.37, 29.56 -0.33" stroke="#000000" stroke-width="1" fill="none"></path></g></g><g stroke-linecap="round"><g transform="translate(792.968741454403 311.66692938690176) rotate(0 14.408522335782209 -4.440438905545733)"><path d="M-0.17 -2.41 C0.29 -3.23, -0.33 -4.06, -0.03 -6.17 M-0.05 -2.67 C-0.18 -3.9, 0.07 -4.92, 0.08 -5.85 M1.87 -5.61 C6.62 -4.82, 16.79 -6.25, 28.99 -5.59 M-0.13 -5.49 C6.35 -5.41, 11.03 -6.43, 27.25 -6.55 M27.7 -5.76 C27.53 -5.06, 27.82 -4.09, 27.59 -2.33 M27.85 -5.9 C27.6 -5.05, 27.55 -4.21, 27.78 -2.33" stroke="#000000" stroke-width="1" fill="none"></path></g></g><g stroke-linecap="round" transform="translate(829.339227691232 301.50588052285906) rotate(0 3.4944213180688166 3.4944213180688166)"><path d="M6 0.43 C6.35 0.93, 5.6 1.63, 5.82 2.47 C6.03 3.3, 7.4 4.73, 7.3 5.44 C7.19 6.15, 6.05 6.6, 5.2 6.73 C4.35 6.85, 2.77 6.43, 2.19 6.18 C1.61 5.94, 1.96 5.64, 1.73 5.27 C1.5 4.89, 0.97 4.62, 0.82 3.93 C0.66 3.24, 0.54 1.6, 0.81 1.12 C1.08 0.64, 1.61 1.27, 2.44 1.05 C3.27 0.83, 5.11 -0.21, 5.8 -0.21 C6.49 -0.2, 6.67 0.78, 6.57 1.1 M2.97 -0.12 C4.02 0.02, 5.71 1.53, 6.45 1.98 C7.2 2.44, 7.63 2.15, 7.45 2.6 C7.27 3.06, 6.05 4.12, 5.37 4.72 C4.69 5.32, 3.71 5.63, 3.36 6.2 C3.02 6.77, 3.77 8.33, 3.29 8.15 C2.81 7.98, 1.15 6.16, 0.48 5.15 C-0.19 4.14, -0.94 2.82, -0.71 2.07 C-0.48 1.31, 1.22 0.84, 1.87 0.6 C2.53 0.37, 3.14 0.6, 3.22 0.64 C3.3 0.68, 2.44 0.63, 2.36 0.83" stroke="#000000" stroke-width="1" fill="none"></path></g><g stroke-linecap="round"><g transform="translate(730.3321441195606 271.25544096176304) rotate(0 10.603662094579136 -9.876021286950504)"><path d="M1.9 1.92 C4.76 -5.02, 13.43 -15.25, 22.07 -20.49 M-0.86 -0.78 C9.21 -9.03, 17.59 -16.53, 21.51 -21.67" stroke="#000000" stroke-width="1" fill="none"></path></g></g><g stroke-linecap="round"><g transform="translate(841.6208876014891 271.2274171089067) rotate(0 -9.876021286950504 -10.449299106852209)"><path d="M1.92 -1.97 C-3.79 -5.11, -12.79 -9.93, -20.49 -19.6 M-0.78 0.8 C-6.7 -5.41, -11.87 -12.17, -21.67 -21.7" stroke="#000000" stroke-width="1" fill="none"></path></g></g><g stroke-linecap="round"><g transform="translate(752.4704758076184 250.15946068764447) rotate(0 33.88775994762034 0.6089669577777386)"><path d="M-1.97 1.82 C27.13 -2.28, 54.75 0.62, 69.74 0.07 M0.8 -0.6 C23.19 0.94, 44.86 0.55, 67.65 1.39" stroke="#000000" stroke-width="1" fill="none"></path></g></g><g transform="translate(695.7485330185611 10) rotate(0 77.5 25)"><text x="77.5" y="18" font-family="Virgil, Segoe UI Emoji" font-size="20px" fill="#000000" text-anchor="middle" style="white-space: pre;" direction="ltr">miners</text><text x="77.5" y="43" font-family="Virgil, Segoe UI Emoji" font-size="20px" fill="#000000" text-anchor="middle" style="white-space: pre;" direction="ltr">(Proof of Work)</text></g><g transform="translate(96.74853301856109 177) rotate(0 49.5 12.5)"><text x="0" y="18" font-family="Virgil, Segoe UI Emoji" font-size="20px" fill="#000000" text-anchor="start" style="white-space: pre;" direction="ltr">txn #2 $</text></g><g transform="translate(87.24853301856109 76) rotate(0 53 12.5)"><text x="0" y="18" font-family="Virgil, Segoe UI Emoji" font-size="20px" fill="#000000" text-anchor="start" style="white-space: pre;" direction="ltr">txn #1 $$</text></g><g transform="translate(95.24853301856109 269) rotate(0 73.5 12.5)"><text x="0" y="18" font-family="Virgil, Segoe UI Emoji" font-size="20px" fill="#000000" text-anchor="start" style="white-space: pre;" direction="ltr">txn #3 $$$$</text></g><g transform="translate(90.74853301856109 380) rotate(0 65 12.5)"><text x="0" y="18" font-family="Virgil, Segoe UI Emoji" font-size="20px" fill="#000000" text-anchor="start" style="white-space: pre;" direction="ltr">txn #4 $$$</text></g><g transform="translate(405.2485330185611 263) rotate(0 49.5 12.5)"><text x="0" y="18" font-family="Virgil, Segoe UI Emoji" font-size="20px" fill="#000000" text-anchor="start" style="white-space: pre;" direction="ltr">txn #2 $</text></g><g transform="translate(408.7485330185611 178) rotate(0 53 12.5)"><text x="0" y="18" font-family="Virgil, Segoe UI Emoji" font-size="20px" fill="#000000" text-anchor="start" style="white-space: pre;" direction="ltr">txn #1 $$</text></g><g transform="translate(403.7485330185611 303) rotate(0 73.5 12.5)"><text x="0" y="18" font-family="Virgil, Segoe UI Emoji" font-size="20px" fill="#000000" text-anchor="start" style="white-space: pre;" direction="ltr">txn #3 $$$$</text></g><g transform="translate(408.2485330185611 225) rotate(0 65 12.5)"><text x="0" y="18" font-family="Virgil, Segoe UI Emoji" font-size="20px" fill="#000000" text-anchor="start" style="white-space: pre;" direction="ltr">txn #4 $$$</text></g><g stroke-linecap="round"><g transform="translate(388.2485330185611 164.5) rotate(0 2.1546018458902836 97.99300878494978)"><path d="M0.57 -0.66 C3.28 60.2, 2.8 117.22, 4.78 196.65 M-0.47 -0.07 C1.64 42.84, 2.99 85.02, 3.28 196.25" stroke="#495057" stroke-width="1" fill="none"></path></g><g transform="translate(388.2485330185611 164.5) rotate(0 2.1546018458902836 97.99300878494978)"><path d="M-6.59 167.46 C-3.34 177.59, -1.84 183.93, 4.17 196.57 M-7.63 168.05 C-5.04 174.76, -2.28 180.72, 2.67 196.17" stroke="#495057" stroke-width="1" fill="none"></path></g><g transform="translate(388.2485330185611 164.5) rotate(0 2.1546018458902836 97.99300878494978)"><path d="M13.93 167.33 C11 177.63, 6.32 184.01, 4.17 196.57 M12.89 167.92 C11.07 174.6, 9.41 180.59, 2.67 196.17" stroke="#495057" stroke-width="1" fill="none"></path></g></g><g transform="translate(354.7485330185611 220) rotate(270.9963478965049 20 12.5)"><text x="0" y="18" font-family="Virgil, Segoe UI Emoji" font-size="20px" fill="#495057" text-anchor="start" style="white-space: pre;" direction="ltr">time</text></g><g transform="translate(981.7485330185611 13.767810821533203) rotate(0 23.5 12.5)"><text x="23.5" y="18" font-family="Virgil, Segoe UI Emoji" font-size="20px" fill="#000000" text-anchor="middle" style="white-space: pre;" direction="ltr">block</text></g><g stroke-linecap="round"><g transform="translate(779.7291801719282 339.5413678400696) rotate(0 140.65601210898728 -1.9618084892318564)"><path d="M-1.35 -1.02 C93.74 -1.61, 190.42 -1.26, 281.44 -3.79 M0.67 0.69 C76.63 -0.47, 154.8 -1.34, 282.66 -4.62" stroke="#495057" stroke-width="1" fill="none"></path></g><g transform="translate(779.7291801719282 339.5413678400696) rotate(0 140.65601210898728 -1.9618084892318564)"><path d="M252.94 4.96 C262.38 1.96, 273.93 0.91, 281.36 -3.15 M255.6 7.2 C261.45 3.46, 270.25 1.09, 282.97 -4.24" stroke="#495057" stroke-width="1" fill="none"></path></g><g transform="translate(779.7291801719282 339.5413678400696) rotate(0 140.65601210898728 -1.9618084892318564)"><path d="M252.47 -15.56 C262.18 -11.65, 273.89 -5.8, 281.36 -3.15 M255.13 -13.32 C261.29 -11.44, 270.22 -8.19, 282.97 -4.24" stroke="#495057" stroke-width="1" fill="none"></path></g></g><g transform="translate(785.2485330185611 357.7678108215332) rotate(0 145.5 10)"><text x="0" y="14" font-family="Virgil, Segoe UI Emoji" font-size="16px" fill="#000000" text-anchor="start" style="white-space: pre;" direction="ltr">txn #3 - txn #4 - txn #1 - txn#2 </text></g><g transform="translate(943.2485330185611 255.7678108215332) rotate(0 49.5 12.5)"><text x="0" y="18" font-family="Virgil, Segoe UI Emoji" font-size="20px" fill="#000000" text-anchor="start" style="white-space: pre;" direction="ltr">txn #2 $</text></g><g transform="translate(939.7485330185611 209.7678108215332) rotate(0 53 12.5)"><text x="0" y="18" font-family="Virgil, Segoe UI Emoji" font-size="20px" fill="#000000" text-anchor="start" style="white-space: pre;" direction="ltr">txn #1 $$</text></g><g transform="translate(931.7485330185611 104.7678108215332) rotate(0 73.5 12.5)"><text x="0" y="18" font-family="Virgil, Segoe UI Emoji" font-size="20px" fill="#000000" text-anchor="start" style="white-space: pre;" direction="ltr">txn #3 $$$$</text></g><g transform="translate(939.2485330185611 162.7678108215332) rotate(0 65 12.5)"><text x="0" y="18" font-family="Virgil, Segoe UI Emoji" font-size="20px" fill="#000000" text-anchor="start" style="white-space: pre;" direction="ltr">txn #4 $$$</text></g></svg>